<mxfile host="app.diagrams.net" agent="Mozilla/5.0 (Windows NT 10.0; Win64; x64) AppleWebKit/537.36 (KHTML, like Gecko) Chrome/138.0.0.0 Safari/537.36" version="28.0.6">
  <diagram name="PÃ¡gina-1" id="yUJnz8i7xXz6HtdrQNJT">
    <mxGraphModel dx="1226" dy="620" grid="1" gridSize="10" guides="1" tooltips="1" connect="1" arrows="1" fold="1" page="1" pageScale="1" pageWidth="827" pageHeight="1169" math="0" shadow="0">
      <root>
        <mxCell id="0" />
        <mxCell id="1" parent="0" />
        <mxCell id="yyt98wI45TtPbiN8xWF5-6" value="Region us-east-1" style="points=[[0,0],[0.25,0],[0.5,0],[0.75,0],[1,0],[1,0.25],[1,0.5],[1,0.75],[1,1],[0.75,1],[0.5,1],[0.25,1],[0,1],[0,0.75],[0,0.5],[0,0.25]];outlineConnect=0;gradientColor=none;html=1;whiteSpace=wrap;fontSize=12;fontStyle=0;container=1;pointerEvents=0;collapsible=0;recursiveResize=0;shape=mxgraph.aws4.group;grIcon=mxgraph.aws4.group_region;strokeColor=#00A4A6;fillColor=none;verticalAlign=top;align=left;spacingLeft=30;fontColor=#147EBA;dashed=1;" parent="1" vertex="1">
          <mxGeometry x="40" y="80" width="760" height="750" as="geometry" />
        </mxCell>
        <mxCell id="yyt98wI45TtPbiN8xWF5-1" value="VPC acme-vpc&amp;nbsp;" style="points=[[0,0],[0.25,0],[0.5,0],[0.75,0],[1,0],[1,0.25],[1,0.5],[1,0.75],[1,1],[0.75,1],[0.5,1],[0.25,1],[0,1],[0,0.75],[0,0.5],[0,0.25]];outlineConnect=0;gradientColor=none;html=1;whiteSpace=wrap;fontSize=12;fontStyle=0;container=1;pointerEvents=0;collapsible=0;recursiveResize=0;shape=mxgraph.aws4.group;grIcon=mxgraph.aws4.group_vpc2;strokeColor=#8C4FFF;fillColor=none;verticalAlign=top;align=left;spacingLeft=30;fontColor=#AAB7B8;dashed=0;" parent="yyt98wI45TtPbiN8xWF5-6" vertex="1">
          <mxGeometry x="20" y="40" width="720" height="690" as="geometry" />
        </mxCell>
        <mxCell id="yyt98wI45TtPbiN8xWF5-7" value="Availability Zone us-east-1a" style="fillColor=none;strokeColor=#147EBA;dashed=1;verticalAlign=top;fontStyle=0;fontColor=#147EBA;whiteSpace=wrap;html=1;" parent="yyt98wI45TtPbiN8xWF5-1" vertex="1">
          <mxGeometry x="20" y="170" width="170" height="340" as="geometry" />
        </mxCell>
        <mxCell id="Vvhe1pdBcFjSdmM_89Hz-30" style="edgeStyle=orthogonalEdgeStyle;rounded=0;orthogonalLoop=1;jettySize=auto;html=1;startArrow=classic;startFill=1;" edge="1" parent="yyt98wI45TtPbiN8xWF5-1" source="yyt98wI45TtPbiN8xWF5-9" target="yyt98wI45TtPbiN8xWF5-16">
          <mxGeometry relative="1" as="geometry">
            <Array as="points">
              <mxPoint x="350" y="600" />
            </Array>
          </mxGeometry>
        </mxCell>
        <mxCell id="yyt98wI45TtPbiN8xWF5-9" value="Security group backend" style="fillColor=none;strokeColor=#DD3522;verticalAlign=top;fontStyle=0;fontColor=#DD3522;whiteSpace=wrap;html=1;" parent="yyt98wI45TtPbiN8xWF5-1" vertex="1">
          <mxGeometry x="260" y="445" width="140" height="30" as="geometry" />
        </mxCell>
        <mxCell id="yyt98wI45TtPbiN8xWF5-8" value="Security group public" style="fillColor=none;strokeColor=#DD3522;verticalAlign=top;fontStyle=0;fontColor=#DD3522;whiteSpace=wrap;html=1;" parent="yyt98wI45TtPbiN8xWF5-1" vertex="1">
          <mxGeometry x="260" y="220" width="140" height="30" as="geometry" />
        </mxCell>
        <mxCell id="yyt98wI45TtPbiN8xWF5-14" value="Availability Zone us-east-1b" style="fillColor=none;strokeColor=#147EBA;dashed=1;verticalAlign=top;fontStyle=0;fontColor=#147EBA;whiteSpace=wrap;html=1;" parent="yyt98wI45TtPbiN8xWF5-1" vertex="1">
          <mxGeometry x="470" y="170" width="170" height="340" as="geometry" />
        </mxCell>
        <mxCell id="yyt98wI45TtPbiN8xWF5-19" value="Amazon API Gateway" style="sketch=0;outlineConnect=0;fontColor=#232F3E;gradientColor=none;strokeColor=#ffffff;fillColor=#232F3E;dashed=0;verticalLabelPosition=middle;verticalAlign=bottom;align=center;html=1;whiteSpace=wrap;fontSize=10;fontStyle=1;spacing=3;shape=mxgraph.aws4.productIcon;prIcon=mxgraph.aws4.api_gateway;" parent="yyt98wI45TtPbiN8xWF5-1" vertex="1">
          <mxGeometry x="620" y="10" width="80" height="110" as="geometry" />
        </mxCell>
        <mxCell id="Vvhe1pdBcFjSdmM_89Hz-6" style="edgeStyle=orthogonalEdgeStyle;rounded=0;orthogonalLoop=1;jettySize=auto;html=1;entryX=0;entryY=0.5;entryDx=0;entryDy=0;startArrow=classic;startFill=1;" edge="1" parent="yyt98wI45TtPbiN8xWF5-1" source="yyt98wI45TtPbiN8xWF5-3" target="yyt98wI45TtPbiN8xWF5-8">
          <mxGeometry relative="1" as="geometry" />
        </mxCell>
        <mxCell id="Vvhe1pdBcFjSdmM_89Hz-22" style="edgeStyle=orthogonalEdgeStyle;rounded=0;orthogonalLoop=1;jettySize=auto;html=1;entryX=0.5;entryY=0;entryDx=0;entryDy=0;startArrow=classic;startFill=1;" edge="1" parent="yyt98wI45TtPbiN8xWF5-1" source="yyt98wI45TtPbiN8xWF5-3" target="oqFAOCB5waSB1BG9wDi1-1">
          <mxGeometry relative="1" as="geometry">
            <Array as="points">
              <mxPoint x="330" y="280" />
            </Array>
          </mxGeometry>
        </mxCell>
        <mxCell id="yyt98wI45TtPbiN8xWF5-3" value="Public subnet" style="points=[[0,0],[0.25,0],[0.5,0],[0.75,0],[1,0],[1,0.25],[1,0.5],[1,0.75],[1,1],[0.75,1],[0.5,1],[0.25,1],[0,1],[0,0.75],[0,0.5],[0,0.25]];outlineConnect=0;gradientColor=none;html=1;whiteSpace=wrap;fontSize=12;fontStyle=0;container=1;pointerEvents=0;collapsible=0;recursiveResize=0;shape=mxgraph.aws4.group;grIcon=mxgraph.aws4.group_security_group;grStroke=0;strokeColor=#7AA116;fillColor=#F2F6E8;verticalAlign=top;align=left;spacingLeft=30;fontColor=#248814;dashed=0;" parent="yyt98wI45TtPbiN8xWF5-1" vertex="1">
          <mxGeometry x="40" y="210" width="130" height="90" as="geometry" />
        </mxCell>
        <mxCell id="yyt98wI45TtPbiN8xWF5-20" style="edgeStyle=orthogonalEdgeStyle;rounded=0;orthogonalLoop=1;jettySize=auto;html=1;startArrow=classic;startFill=1;" parent="yyt98wI45TtPbiN8xWF5-1" source="yyt98wI45TtPbiN8xWF5-19" target="yyt98wI45TtPbiN8xWF5-16" edge="1">
          <mxGeometry relative="1" as="geometry">
            <Array as="points">
              <mxPoint x="670" y="95" />
            </Array>
          </mxGeometry>
        </mxCell>
        <mxCell id="yyt98wI45TtPbiN8xWF5-16" value="AWS Lambda" style="sketch=0;outlineConnect=0;fontColor=#232F3E;gradientColor=none;strokeColor=#ffffff;fillColor=#232F3E;dashed=0;verticalLabelPosition=middle;verticalAlign=bottom;align=center;html=1;whiteSpace=wrap;fontSize=10;fontStyle=1;spacing=3;shape=mxgraph.aws4.productIcon;prIcon=mxgraph.aws4.lambda;" parent="yyt98wI45TtPbiN8xWF5-1" vertex="1">
          <mxGeometry x="620" y="555" width="80" height="100" as="geometry" />
        </mxCell>
        <mxCell id="Vvhe1pdBcFjSdmM_89Hz-7" style="edgeStyle=orthogonalEdgeStyle;rounded=0;orthogonalLoop=1;jettySize=auto;html=1;entryX=0;entryY=0.5;entryDx=0;entryDy=0;startArrow=classic;startFill=1;" edge="1" parent="yyt98wI45TtPbiN8xWF5-1" source="Vvhe1pdBcFjSdmM_89Hz-4" target="yyt98wI45TtPbiN8xWF5-9">
          <mxGeometry relative="1" as="geometry" />
        </mxCell>
        <mxCell id="Vvhe1pdBcFjSdmM_89Hz-24" style="edgeStyle=orthogonalEdgeStyle;rounded=0;orthogonalLoop=1;jettySize=auto;html=1;entryX=0.5;entryY=1;entryDx=0;entryDy=0;startArrow=classic;startFill=1;" edge="1" parent="yyt98wI45TtPbiN8xWF5-1" source="Vvhe1pdBcFjSdmM_89Hz-4" target="oqFAOCB5waSB1BG9wDi1-1">
          <mxGeometry relative="1" as="geometry">
            <Array as="points">
              <mxPoint x="330" y="420" />
            </Array>
          </mxGeometry>
        </mxCell>
        <mxCell id="Vvhe1pdBcFjSdmM_89Hz-4" value="Private subnet" style="points=[[0,0],[0.25,0],[0.5,0],[0.75,0],[1,0],[1,0.25],[1,0.5],[1,0.75],[1,1],[0.75,1],[0.5,1],[0.25,1],[0,1],[0,0.75],[0,0.5],[0,0.25]];outlineConnect=0;gradientColor=none;html=1;whiteSpace=wrap;fontSize=12;fontStyle=0;container=1;pointerEvents=0;collapsible=0;recursiveResize=0;shape=mxgraph.aws4.group;grIcon=mxgraph.aws4.group_security_group;grStroke=0;strokeColor=#00A4A6;fillColor=#E6F6F7;verticalAlign=top;align=left;spacingLeft=30;fontColor=#147EBA;dashed=0;" vertex="1" parent="yyt98wI45TtPbiN8xWF5-1">
          <mxGeometry x="40" y="400" width="130" height="90" as="geometry" />
        </mxCell>
        <mxCell id="Vvhe1pdBcFjSdmM_89Hz-28" style="edgeStyle=orthogonalEdgeStyle;rounded=0;orthogonalLoop=1;jettySize=auto;html=1;startArrow=classic;startFill=1;" edge="1" parent="yyt98wI45TtPbiN8xWF5-1" source="oqFAOCB5waSB1BG9wDi1-1" target="yyt98wI45TtPbiN8xWF5-17">
          <mxGeometry relative="1" as="geometry">
            <Array as="points">
              <mxPoint x="200" y="340" />
            </Array>
          </mxGeometry>
        </mxCell>
        <mxCell id="oqFAOCB5waSB1BG9wDi1-1" value="" style="container=1;collapsible=0;expand=0;recursiveResize=0;html=1;whiteSpace=wrap;strokeColor=#1192E8;fillColor=none;strokeWidth=1" parent="yyt98wI45TtPbiN8xWF5-1" vertex="1">
          <mxGeometry x="235" y="315" width="190" height="50" as="geometry" />
        </mxCell>
        <mxCell id="oqFAOCB5waSB1BG9wDi1-2" value="RDS Subnet Group" style="shape=rect;fillColor=none;aspect=fixed;resizable=0;labelPosition=right;verticalLabelPosition=middle;align=left;verticalAlign=middle;strokeColor=none;part=1;spacingLeft=5;fontSize=14;" parent="oqFAOCB5waSB1BG9wDi1-1" vertex="1">
          <mxGeometry width="48" height="48" relative="1" as="geometry" />
        </mxCell>
        <mxCell id="oqFAOCB5waSB1BG9wDi1-3" value="" style="fillColor=#1192E8;shape=mxgraph.ibm_cloud.ibm-cloud--subnets;strokeColor=none;dashed=0;outlineConnect=0;html=1;labelPosition=center;verticalLabelPosition=bottom;verticalAlign=top;part=1;movable=0;resizable=0;rotatable=0;" parent="oqFAOCB5waSB1BG9wDi1-2" vertex="1">
          <mxGeometry width="24" height="24" relative="1" as="geometry">
            <mxPoint x="12" y="12" as="offset" />
          </mxGeometry>
        </mxCell>
        <mxCell id="oqFAOCB5waSB1BG9wDi1-4" value="" style="shape=rect;fillColor=#1192E8;aspect=fixed;resizable=0;labelPosition=right;verticalLabelPosition=middle;align=left;verticalAlign=middle;strokeColor=none;part=1;spacingLeft=5;fontSize=14;" parent="oqFAOCB5waSB1BG9wDi1-1" vertex="1">
          <mxGeometry width="4" height="48" relative="1" as="geometry" />
        </mxCell>
        <mxCell id="Vvhe1pdBcFjSdmM_89Hz-12" style="edgeStyle=orthogonalEdgeStyle;rounded=0;orthogonalLoop=1;jettySize=auto;html=1;entryX=1;entryY=0.5;entryDx=0;entryDy=0;startArrow=classic;startFill=1;" edge="1" parent="yyt98wI45TtPbiN8xWF5-1" source="Vvhe1pdBcFjSdmM_89Hz-10" target="yyt98wI45TtPbiN8xWF5-8">
          <mxGeometry relative="1" as="geometry" />
        </mxCell>
        <mxCell id="Vvhe1pdBcFjSdmM_89Hz-23" style="edgeStyle=orthogonalEdgeStyle;rounded=0;orthogonalLoop=1;jettySize=auto;html=1;entryX=0.5;entryY=0;entryDx=0;entryDy=0;startArrow=classic;startFill=1;" edge="1" parent="yyt98wI45TtPbiN8xWF5-1" source="Vvhe1pdBcFjSdmM_89Hz-10" target="oqFAOCB5waSB1BG9wDi1-1">
          <mxGeometry relative="1" as="geometry">
            <Array as="points">
              <mxPoint x="330" y="280" />
            </Array>
          </mxGeometry>
        </mxCell>
        <mxCell id="Vvhe1pdBcFjSdmM_89Hz-10" value="Public subnet" style="points=[[0,0],[0.25,0],[0.5,0],[0.75,0],[1,0],[1,0.25],[1,0.5],[1,0.75],[1,1],[0.75,1],[0.5,1],[0.25,1],[0,1],[0,0.75],[0,0.5],[0,0.25]];outlineConnect=0;gradientColor=none;html=1;whiteSpace=wrap;fontSize=12;fontStyle=0;container=1;pointerEvents=0;collapsible=0;recursiveResize=0;shape=mxgraph.aws4.group;grIcon=mxgraph.aws4.group_security_group;grStroke=0;strokeColor=#7AA116;fillColor=#F2F6E8;verticalAlign=top;align=left;spacingLeft=30;fontColor=#248814;dashed=0;" vertex="1" parent="yyt98wI45TtPbiN8xWF5-1">
          <mxGeometry x="490" y="210" width="130" height="90" as="geometry" />
        </mxCell>
        <mxCell id="Vvhe1pdBcFjSdmM_89Hz-13" style="edgeStyle=orthogonalEdgeStyle;rounded=0;orthogonalLoop=1;jettySize=auto;html=1;entryX=1;entryY=0.5;entryDx=0;entryDy=0;startArrow=classic;startFill=1;" edge="1" parent="yyt98wI45TtPbiN8xWF5-1" source="Vvhe1pdBcFjSdmM_89Hz-11" target="yyt98wI45TtPbiN8xWF5-9">
          <mxGeometry relative="1" as="geometry" />
        </mxCell>
        <mxCell id="Vvhe1pdBcFjSdmM_89Hz-26" style="edgeStyle=orthogonalEdgeStyle;rounded=0;orthogonalLoop=1;jettySize=auto;html=1;entryX=0.5;entryY=1;entryDx=0;entryDy=0;startArrow=classic;startFill=1;" edge="1" parent="yyt98wI45TtPbiN8xWF5-1" source="Vvhe1pdBcFjSdmM_89Hz-11" target="oqFAOCB5waSB1BG9wDi1-1">
          <mxGeometry relative="1" as="geometry">
            <Array as="points">
              <mxPoint x="330" y="420" />
            </Array>
          </mxGeometry>
        </mxCell>
        <mxCell id="Vvhe1pdBcFjSdmM_89Hz-11" value="Private subnet" style="points=[[0,0],[0.25,0],[0.5,0],[0.75,0],[1,0],[1,0.25],[1,0.5],[1,0.75],[1,1],[0.75,1],[0.5,1],[0.25,1],[0,1],[0,0.75],[0,0.5],[0,0.25]];outlineConnect=0;gradientColor=none;html=1;whiteSpace=wrap;fontSize=12;fontStyle=0;container=1;pointerEvents=0;collapsible=0;recursiveResize=0;shape=mxgraph.aws4.group;grIcon=mxgraph.aws4.group_security_group;grStroke=0;strokeColor=#00A4A6;fillColor=#E6F6F7;verticalAlign=top;align=left;spacingLeft=30;fontColor=#147EBA;dashed=0;" vertex="1" parent="yyt98wI45TtPbiN8xWF5-1">
          <mxGeometry x="490" y="400" width="130" height="90" as="geometry" />
        </mxCell>
        <mxCell id="yyt98wI45TtPbiN8xWF5-17" value="Amazon RDS" style="sketch=0;outlineConnect=0;fontColor=#232F3E;gradientColor=none;strokeColor=#ffffff;fillColor=#232F3E;dashed=0;verticalLabelPosition=middle;verticalAlign=bottom;align=center;html=1;whiteSpace=wrap;fontSize=10;fontStyle=1;spacing=3;shape=mxgraph.aws4.productIcon;prIcon=mxgraph.aws4.rds;" parent="yyt98wI45TtPbiN8xWF5-1" vertex="1">
          <mxGeometry x="160" y="560" width="80" height="100" as="geometry" />
        </mxCell>
        <mxCell id="yyt98wI45TtPbiN8xWF5-28" value="Amazon CloudWatch" style="sketch=0;outlineConnect=0;fontColor=#232F3E;gradientColor=none;strokeColor=#ffffff;fillColor=#232F3E;dashed=0;verticalLabelPosition=middle;verticalAlign=bottom;align=center;html=1;whiteSpace=wrap;fontSize=10;fontStyle=1;spacing=3;shape=mxgraph.aws4.productIcon;prIcon=mxgraph.aws4.cloudwatch;" parent="yyt98wI45TtPbiN8xWF5-1" vertex="1">
          <mxGeometry x="30" y="555" width="80" height="110" as="geometry" />
        </mxCell>
        <mxCell id="yyt98wI45TtPbiN8xWF5-35" style="edgeStyle=orthogonalEdgeStyle;rounded=0;orthogonalLoop=1;jettySize=auto;html=1;" parent="yyt98wI45TtPbiN8xWF5-1" source="yyt98wI45TtPbiN8xWF5-28" target="yyt98wI45TtPbiN8xWF5-17" edge="1">
          <mxGeometry relative="1" as="geometry" />
        </mxCell>
        <mxCell id="Vvhe1pdBcFjSdmM_89Hz-31" style="edgeStyle=orthogonalEdgeStyle;rounded=0;orthogonalLoop=1;jettySize=auto;html=1;entryX=0.996;entryY=0.574;entryDx=0;entryDy=0;entryPerimeter=0;startArrow=classic;startFill=1;" edge="1" parent="yyt98wI45TtPbiN8xWF5-1" source="yyt98wI45TtPbiN8xWF5-9" target="yyt98wI45TtPbiN8xWF5-17">
          <mxGeometry relative="1" as="geometry">
            <Array as="points">
              <mxPoint x="320" y="617" />
            </Array>
          </mxGeometry>
        </mxCell>
        <mxCell id="yyt98wI45TtPbiN8xWF5-32" style="edgeStyle=orthogonalEdgeStyle;rounded=0;orthogonalLoop=1;jettySize=auto;html=1;" parent="1" source="yyt98wI45TtPbiN8xWF5-30" target="yyt98wI45TtPbiN8xWF5-19" edge="1">
          <mxGeometry relative="1" as="geometry" />
        </mxCell>
        <mxCell id="yyt98wI45TtPbiN8xWF5-30" value="" style="points=[];aspect=fixed;html=1;align=center;shadow=0;dashed=0;fillColor=#FF6A00;strokeColor=none;shape=mxgraph.alibaba_cloud.user;" parent="1" vertex="1">
          <mxGeometry x="340" y="10" width="60" height="60" as="geometry" />
        </mxCell>
        <mxCell id="yyt98wI45TtPbiN8xWF5-25" style="edgeStyle=orthogonalEdgeStyle;rounded=0;orthogonalLoop=1;jettySize=auto;html=1;startArrow=classic;startFill=1;" parent="1" source="yyt98wI45TtPbiN8xWF5-22" target="yyt98wI45TtPbiN8xWF5-23" edge="1">
          <mxGeometry relative="1" as="geometry" />
        </mxCell>
        <mxCell id="yyt98wI45TtPbiN8xWF5-22" value="Amazon S3" style="sketch=0;outlineConnect=0;fontColor=#232F3E;gradientColor=none;strokeColor=#ffffff;fillColor=#232F3E;dashed=0;verticalLabelPosition=middle;verticalAlign=bottom;align=center;html=1;whiteSpace=wrap;fontSize=10;fontStyle=1;spacing=3;shape=mxgraph.aws4.productIcon;prIcon=mxgraph.aws4.s3;" parent="1" vertex="1">
          <mxGeometry x="253" y="860" width="80" height="100" as="geometry" />
        </mxCell>
        <mxCell id="yyt98wI45TtPbiN8xWF5-23" value="Public Policy" style="sketch=0;pointerEvents=1;shadow=0;dashed=0;html=1;strokeColor=none;fillColor=#505050;labelPosition=center;verticalLabelPosition=bottom;verticalAlign=top;outlineConnect=0;align=center;shape=mxgraph.office.security.policy;" parent="1" vertex="1">
          <mxGeometry x="393" y="885.5" width="53" height="49" as="geometry" />
        </mxCell>
        <mxCell id="yyt98wI45TtPbiN8xWF5-33" value="&lt;div&gt;&lt;br&gt;&lt;/div&gt;Amazon Glacier" style="sketch=0;outlineConnect=0;fontColor=#232F3E;gradientColor=none;strokeColor=#ffffff;fillColor=#232F3E;dashed=0;verticalLabelPosition=middle;verticalAlign=bottom;align=center;html=1;whiteSpace=wrap;fontSize=10;fontStyle=1;spacing=3;shape=mxgraph.aws4.productIcon;prIcon=mxgraph.aws4.glacier;" parent="1" vertex="1">
          <mxGeometry x="153" y="860" width="80" height="100" as="geometry" />
        </mxCell>
        <mxCell id="yyt98wI45TtPbiN8xWF5-34" value="Amazon SNS" style="sketch=0;outlineConnect=0;fontColor=#232F3E;gradientColor=none;strokeColor=#ffffff;fillColor=#232F3E;dashed=0;verticalLabelPosition=middle;verticalAlign=bottom;align=center;html=1;whiteSpace=wrap;fontSize=10;fontStyle=1;spacing=3;shape=mxgraph.aws4.productIcon;prIcon=mxgraph.aws4.sns;" parent="1" vertex="1">
          <mxGeometry x="593" y="860" width="80" height="100" as="geometry" />
        </mxCell>
      </root>
    </mxGraphModel>
  </diagram>
</mxfile>
